<svg xmlns="http://www.w3.org/2000/svg" viewBox="0 0 165.97 166.06"><path d="M108.52 31.85c0,1.82 -7.53,8.46 -9.17,10.09l-62.04 62.04c-7.06,7.06 -4.39,4.66 -9.31,1.72 -13.98,-8.33 -28,2.68 -28,14.3 0,5.98 1.4,9.98 5.08,13.81 9.35,9.73 21.25,3.6 22.33,3.6 4.04,0 -4.16,6.8 0.89,18 0.69,1.53 2.35,3.98 3.44,5.07l4.99 3.53c19.24,9.18 34.38,-14.76 22.06,-27.98 -2.7,-2.89 -1.32,-2.94 2.97,-7.23l66.85 -66.85c8.87,-8.87 3.16,-2.73 14.12,0.51 7.56,2.24 14.6,-0.63 19.39,-6.26 5.73,-6.75 4.88,-17.92 -1.46,-24.26 -11.06,-11.06 -23.26,-0.95 -23.26,-4.15 0,-3.42 1.85,-2.09 1.85,-10.37 0,-9.1 -8.31,-17.41 -17.41,-17.41 -8.81,0 -15.44,4.74 -17.83,11.43 -2.15,6 -1.31,13.71 2.93,18.29 0.58,0.63 1.57,1.16 1.57,2.13zm-23.43 77.69c2.94,4.35 23.43,21.86 23.43,24.54 0,1.21 -1.36,1.41 -2.82,3.85 -0.8,1.34 -1.76,3.21 -2.23,4.81 -3.49,11.8 6.24,23.19 16.16,23.19 6.09,0 10.09,-1.15 14.18,-5.08 9.73,-9.35 3.6,-21.25 3.6,-22.33 0,-4.48 10.72,6.97 23.06,-4.35 9.21,-8.45 6.46,-25.71 -5.97,-30.15 -13.15,-4.71 -18.27,4.5 -20.8,4.5 -1.7,0 -20.58,-21 -24.08,-23.33l-24.54 24.35zm-58.43 -92.87c0,2.55 -0.12,4.34 0.6,6.81 0.12,0.39 2.38,5.05 0.51,5.05 -1.9,0 -2.56,-0.68 -4.02,-1.16 -9.72,-3.17 -23.76,2.82 -23.76,18.57 0,7.52 5.98,14.12 11.7,16.08 3.57,1.22 7.64,1.59 11.49,0.45 1.6,-0.47 3.47,-1.43 4.81,-2.23 5.94,-3.54 1.17,-6.43 16.35,8.76l11.94 11.76 24.54 -24.35c-2.88,-4.19 -23.43,-21.93 -23.43,-24.54 0,-1.21 1.36,-1.41 2.82,-3.85 8.35,-14.01 -2.73,-28 -14.3,-28 -5.98,0 -9.98,1.4 -13.81,5.08 -2.36,2.27 -5.45,7.15 -5.45,11.59z"/>
</svg>
