<svg xmlns="http://www.w3.org/2000/svg" viewBox="0 0 595.28 545.33"><path d="M111.62,317.43c0,52.3,26.27,74.52,52.6,100.86l26.16,26.16,90.11,90.11c19.85,19.86,24.33,10,45.35-11l77.89-77.9c38.63-38.63,79.93-67,79.93-127,0-62.75-52.07-116.27-111.61-116.27-26.06,0-38.63,2.59-60.47,13.94-2.53,1.31-4,2.21-6.61,3.86-14.11,8.74-1.65,3.12-35.55-10.5-27.56-11.09-65-9.53-91.16,3.53-37.83,18.88-66.64,56.9-66.64,104.27ZM143,89.55c0,28.52,6.36,48.08,20.41,66.78C183.14,182.61,215.77,193.84,248,176c9.48-5.24,15.37-11.84,22-19.86,27-32.74,27.17-88.13,1.84-125.64C251.43.22,215.12-8.61,183.73,9.36,159.16,23.43,143,58.74,143,89.55Zm161.61,2.33c0,33.75,15.47,67.77,41.16,83.25,50,30.14,106.5-13.3,106.5-85.57,0-16-4.86-34.84-11.61-47.69C400.44-34.65,304.61.65,304.61,91.88ZM0,154.66c0,25.12,3,42.07,18.09,62.14,25.44,33.88,72.19,31.73,96.81-6.54C141.46,169,128.1,100.64,82.43,83.88,38,67.56,0,113.36,0,154.67Zm530.17,86c20.84,0,37.64-11.4,47-23.9a91.62,91.62,0,0,0,18.09-47.69V153c-3.82-45.89-39.79-84.81-82.41-69.15-45.62,16.75-66.77,93.91-20.21,140.85C500.58,232.69,514.7,240.69,530.18,240.69Z" transform="translate(-0.01 -0.01)" fill="#fff" fill-rule="evenodd"/><path d="M154.13,317.43c0,31.21,16.76,47.79,34.67,65.51,9.73,9.62-8.42-8.63,5.48,5.28l26.16,26.16,77.2,77.19,76-76c3.47-3.47,11.1-10.71,18.61-17.83,25.58-24.28,48.87-46.39,48.87-79.12a75.6,75.6,0,0,0-21.34-52.08c-12.74-13.29-29.83-21.67-47.75-21.67-10.3,0-17.3.37-22.52,1.55-4.9,1.11-10.48,3.48-18.35,7.58-2.49,1.29-2.82,1.5-3.38,1.84l-.57.35c-3.35,2.08.7-.4-1.92,1.25-15.57,9.79-21.16,13.32-40.91,7.48-8-2.36-11.22-4.76-16.27-8.49-1.65-1.22-4.71-3.49-14.48-7.42-8.21-3.3-18.35-4.71-28.73-4.31-10.06.4-19.86,2.59-27.72,6.51a80.83,80.83,0,0,0-32.14,28.34,69.68,69.68,0,0,0-10.92,37.9Zm-42.51,0c0,52.3,26.27,74.52,52.6,100.86l26.16,26.16,90.11,90.11c19.85,19.86,24.33,10,45.35-11l77.89-77.9c38.63-38.63,79.93-67,79.93-127,0-62.75-52.07-116.27-111.61-116.27-26.06,0-38.63,2.59-60.47,13.94-2.53,1.31-4,2.21-6.61,3.86-14.11,8.74-1.65,3.12-35.55-10.5-27.56-11.09-65-9.53-91.16,3.53-37.83,18.88-66.64,56.9-66.64,104.27ZM143,89.55c0,28.52,6.36,48.08,20.41,66.78C183.14,182.61,215.77,193.84,248,176c9.48-5.24,15.37-11.84,22-19.86,27-32.74,27.17-88.13,1.84-125.64C251.43.22,215.12-8.61,183.73,9.36,159.16,23.43,143,58.74,143,89.55Zm161.61,2.33c0,33.75,15.47,67.77,41.16,83.25,50,30.14,106.5-13.3,106.5-85.57,0-16-4.86-34.84-11.61-47.69C400.44-34.65,304.61.65,304.61,91.88ZM0,154.66c0,25.12,3,42.07,18.09,62.14,25.44,33.88,72.19,31.73,96.81-6.54C141.46,169,128.1,100.64,82.43,83.88,38,67.56,0,113.36,0,154.67Zm530.17,86c20.84,0,37.64-11.4,47-23.9a91.62,91.62,0,0,0,18.09-47.69V153c-3.82-45.89-39.79-84.81-82.41-69.15-45.62,16.75-66.77,93.91-20.21,140.85C500.58,232.69,514.7,240.69,530.18,240.69ZM185.54,89.55c0,10.19,1,18.18,3,24.62a54.39,54.39,0,0,0,8.83,16.76c4.28,5.71,9.5,9.59,14.9,10.85,4.43,1,9.63.25,15.23-2.85a16.14,16.14,0,0,0,3.42-2.59,79.4,79.4,0,0,0,6.43-7.15c7.11-8.61,10.72-21,10.91-34.2.2-14.42-3.68-29.11-11.56-40.78-4.14-6.12-9.29-9.93-14.59-11.2s-11.18-.23-17.22,3.22c-4.49,2.57-8.75,8-12.22,14.89A64.45,64.45,0,0,0,185.54,89.55Zm161.61,2.33A69.83,69.83,0,0,0,354,122.44c3.57,7.22,8.25,13,13.69,16.31A22,22,0,0,0,379,142.29a18.86,18.86,0,0,0,10.07-3c4.13-2.58,8.09-6.89,11.58-12.67,5.67-9.41,9.12-22,9.12-37.1A63.15,63.15,0,0,0,407.92,75a59.47,59.47,0,0,0-4.79-13.31c-5.45-10.37-11.8-16.23-18-18.32a18.93,18.93,0,0,0-11.23,0,29.9,29.9,0,0,0-13.3,8.44c-8,8.47-13.43,22.1-13.43,40.14ZM42.54,154.66c0,9.24.43,16.47,1.91,22A42.31,42.31,0,0,0,52,191.38a19.79,19.79,0,0,0,5.15,4.86,12.1,12.1,0,0,0,7.09,2A15,15,0,0,0,72.42,195a29.25,29.25,0,0,0,6.79-7.67,38.74,38.74,0,0,0,3.67-7.53,57.07,57.07,0,0,0,1.36-33.36v-.16c-2.36-9.13-6.8-16.88-13-20.87a16.83,16.83,0,0,0-3.4-1.68A11.12,11.12,0,0,0,64,123c-2.77,0-5.75,1.5-8.53,3.88a38.73,38.73,0,0,0-10.67,16,34.47,34.47,0,0,0-2.22,11.78Zm487.64,43.51a15.08,15.08,0,0,0,6.85-1.62,18.18,18.18,0,0,0,6.3-5.17,49,49,0,0,0,6.58-12,49.92,49.92,0,0,0,2.86-12.06V154.82a53.57,53.57,0,0,0-2.91-12.5c-2.62-7.13-6.44-13-11-16.58-2.48-2-5.15-3.08-7.69-2.86a14,14,0,0,0-3.71.85,18.29,18.29,0,0,0-6.42,4.28c-5.12,5.08-9,12.71-10.86,21.51a51.32,51.32,0,0,0,1.73,28.37,46.86,46.86,0,0,0,10.79,16.93,13.72,13.72,0,0,0,4.16,2.6,8.69,8.69,0,0,0,3.29.75Z" transform="translate(-0.01 -0.01)" fill-rule="evenodd"/></svg>