<svg xmlns="http://www.w3.org/2000/svg" viewBox="0 0 582.04 453.61"><path d="M111,362.8c40.87,0,110.76-18.37,136.34-48.58,4.65-5.5,7.3-11,6.27-20.84,3.18-2.19,8.3-7.58,10.09-11.72,4.89,3.31,12.69,25.42,14.88,30.65C283,323,287.51,333.47,292,343.89c10.78,25-19,46.62-32.18,54.84-35.17,22-90.69,39.65-141.84,39.51-17.9,0-36.12-2.38-49.1-10.25-16.84-10.2-15-19.38-17.55-43-3.2-29.54-10.82-53.51,8-71.8C63.64,309,69.65,302.06,76,299.47c3.92,2.15,10.37,5.68,14.25,8.34-3.63,5.05-32.43,19.35-26.7,37.54,4.35,13.8,30.06,17.41,47.45,17.41ZM86.16,15.52c8.07,1.92,18.69,13.89,21.07,21.82-4.14,2.28-14.82,8.22-9.75,16,5.44,8.32,14.13-.93,18.4-3.63,27-17.06,63.54-17.78,90.8-.59,4.45,2.81,12.69,12.27,18.63,5.07,6.35-7.7-5.34-14.57-9.31-17.1,3-8.45,12.26-18.7,21-21.2-.81,17.41-5.92,28.7-3.7,49,3.77,34.42,26.71,45.43,27.5,53,2.41,23.12-11.79,44.57-11.47,69,.29,22.77,21.52,57.67.25,88.58-14.28,20.75-46,27.13-79.59,28.59V272.53c38.12-1.77,56.63-29.43,21.27-42.93a83.21,83.21,0,0,0-30.26-5c-54.77.35-69.45,40.16-7,48.16v31c-20.17.73-46.34-4.42-61.51-12.45C41.59,264.36,76.4,209.8,73.57,178.8c-2-22.17-13.91-39.16-10.64-64,6-6.54,10.13-10,15.21-17.83,21.27-32.73,9.1-58.3,8-81.45Zm181.14-.17c-.81,6.58,9.34,18.27,11.54,21.59C259.29,31.28,255.52,3.81,243.41.54c-9.6-2.59-21.16,4.72-25.75,9-11.5,10.67-9.5,12-15.68,19.47-5.7-1-12.82-4.24-19.36-5.63-29.64-6.28-40.13,1-62.05,5.88-4-10.72-23-32.57-40.08-28.84-13.16,2.88-15.7,29.81-35,35.82,3.17-6.61,7.89-8.51,10.87-20.65-23.29,5.19-40.25,2-48.49,5.17C-8.76,27.14,5.6,47.38,9,55.92c5,12.62,8.41,26.34,13.1,38.89,5,13.32,10,24.75,24.87,26.9,0,17,4.24,28.65,8.12,43.15,5.39,20.14,3.89,24-1,42.92-7.92,30.46-7.94,58.81,9.87,80-2,3-8.48,7.83-11.43,10.55a76.28,76.28,0,0,0-10.26,11.72c-16.5,23.17-9.84,42.25-6.63,72.11,1.28,12,1.36,28.58,5.94,38.25,18.8,39.73,87.33,37,135.58,26.46,34.65-7.53,95-28.55,118.18-57.7,20.67-26,15.94-39.74,5.44-64.08-4.4-10.2-8.85-20.53-13.17-30.83-5.74-13.72-7.79-18.76-15.8-28.38.33-6.22,2.17-11.69,2.45-19a108.94,108.94,0,0,0-1.06-20.25c-1.85-12.31-5.82-22.41-7.71-33.52-3.65-21.53,11.19-45.56,10.87-71,9.78-2.63,12.06-3.83,16.59-10.32,9.46-13.58,14.82-39.37,21.92-57,4.3-10.72,16.39-28.73-.37-34.26-12.73-4.2-34,1.21-47.11-5.06Z" fill-rule="evenodd"/><path d="M196.31,145.8c-20.59,10.37-9.38,48.84,9,41.26,8-3.29,12.25-15.24,10.4-26.28-1.42-8.49-9.31-20.09-19.45-15Z" fill-rule="evenodd"/><path d="M201.54,95.91c-5.57,1.53-12,3-12.72,8.92-.79,6.78,4.94,10.42,11.09,7.89,20.49-8.44,21.49,8.18,26.49,11.71,5.37,3.85,11.77-.65,12.15-5.74C239.14,110.13,222.82,90.05,201.54,95.91Z" fill-rule="evenodd"/><path d="M113.18,169.8c-3.29-26,24.95-32.73,28-7C144.23,189,116.4,195,113.18,169.8ZM116,94.5c-24.89,4.94-37.13,36.05-32.64,66.14,3.55,23.8,22,55.2,49.07,50.39,24.63-4.38,37.68-36.82,32.87-66.85-3.75-23.38-22.14-55.05-49.3-49.67Z" fill-rule="evenodd"/><path d="M240.09,345.67l-.53,13c-4.79.18-8.08-3.56-12.58-4.53a64,64,0,0,0-5.62,5.79c8.77,10.12,18,1.51,24.42,22.2,4.43-1.38,7.06-4.17,10.1-6.17-.92-3.85-4.91-8.1-7-11.1l.6-20.26-9.35,1.12Z" fill-rule="evenodd"/><path d="M211.64,386.11c-1.21-4-5.8-10.42-4.87-13.51,3.48-2,4.79-1.59,9.19-.64C217.4,372.73,225.65,382.67,211.64,386.11ZM196,368.8c1.69,10.79,7,20.56,9.91,30.09,10.82-1.79,27-10.85,21.86-24.08-4.92-12.72-20.12-13.64-31.77-6Z" fill-rule="evenodd"/><path d="M187.68,388.15c1.1,6.09-3.59,7.71-8.67,8.59-1.44-4.55-4.23-9.76-3.83-14.63C181.21,381.42,186.5,381.58,187.68,388.15ZM165,377c.29,10,4.14,22.27,6.46,31.47,4.71.24,28.74-4.35,25.38-20.54C192.81,368.71,171.12,375.9,165,377Z" fill-rule="evenodd"/><path d="M145.93,379.8c1.37,6.9,6.23,17.88,5.46,23.55-6.41,2.87-11,3-13.23-4.77-1.58-5.5-3-11.23-4-16.68-9,.57-9.4-.25-7.69,8.64,3.21,16.59,2.26,30.12,29.55,19l3,2.92,6.1-2.39c-.33-3.86-9.39-27.69-12.54-30.74l-6.62.44Z" fill-rule="evenodd"/><path d="M103,400.8c5.58-.22,8.58-.06,9.44,5-2.29,3-3.43,3.1-8.24,2.8Zm-.88-13.35,6.47,1.89c-.07,5.57-.64,5.2-6.56,5.68ZM93,413.88c7.66,1.24,17.79,3,25.07-.07,6.4-2.74,8.31-9.87.4-14.51a16.9,16.9,0,0,1-2.58-1.54c4.28-5.34,4.35-11.32-2.51-14.38-5.57-2.48-14.31-1.44-20.81-1-1.75,6.48.14,24,.43,31.46Z" fill-rule="evenodd"/><path d="M540.41,245c13.65-.08,23.2,4.63,22.73,19s-9,16.83-23.15,17.22Zm-22.47,60.59c33.73-.67,62.3-2.89,64-38.43,1.89-38.56-32-41.1-57.72-40.21-4.22,10.3-6,64-6.31,78.64Z" fill-rule="evenodd"/><path d="M469.24,247.5c22.22-10.16,26.84,26.3,13.6,31.74C464.41,286.85,449.67,256.42,469.24,247.5Zm-29.56,29c3.39,18.21,23.5,33.34,46.35,27.7,18.34-4.52,28.26-26.73,22.75-48.33-12.46-49.52-79.1-33.08-69.13,20.63Z" fill-rule="evenodd"/><path d="M390.81,247.15c24.07-8.48,25.57,29.41,11.56,32.68C381.78,284.64,372.61,253.56,390.81,247.15Zm-30.6,26.25c5.18,45.7,81.06,43.84,70.09-15.3C421.27,209.42,354.08,219.6,360.21,273.4Z" fill-rule="evenodd"/><path d="M353.28,240.53l1.81-15.19-46.24,4.24c-5.38,19.46-7.08,47.36-7.21,69.24,2,8.06,20,6.73,26.48,6.8-1.75-42.66-2.56-33.88,21.29-35.45l-.56-13.38L326,256.1l-.08-11.92,27.37-3.65Z" fill-rule="evenodd"/><path d="M518.41,194.22c-.33-4-3.51-31.11-4.41-32.58-1.43-2.3-12.05-3.17-14.67-.92s-1.58,13.08-1.77,17.64c-18.19,3.3-27.13-9.37-19.88-24.89,5.75-12.32,20.51-13.95,36.05-13.86a35.45,35.45,0,0,0-3.52-18.09c-15.78.08-30.16,2.55-39.18,11-25.39,23.54-18.65,58.17,5,67.28,16.88,6.49,30-.16,42.35-5.55Z" fill-rule="evenodd"/><path d="M421.78,175c-27.94,5-29.51-25-15.87-31.65C424.78,134.17,434.92,160.15,421.78,175ZM404,123.6c-43.9,11.62-33.08,85.93,16.72,77.19,44.44-7.78,31-89.79-16.72-77.16Z" fill-rule="evenodd"/><path d="M324.26,141.06c13.26-.26,23.1,4.43,23,18.06-.09,14.29-9.76,17.3-23.27,18Zm-23.1,59.87c24.29,3.27,61.61-1.35,64.64-35.41,1.58-17.34-5.34-28.48-15.07-35.56-10.87-7.93-27.14-7.54-43.31-6.93Z" fill-rule="evenodd"/></svg>