<svg xmlns="http://www.w3.org/2000/svg" fill-rule="evenodd"
viewBox="0 0 7056.57 9154.82"
>
  <g id="_2667623052944">
   <path fill="white" d="M4528.34 2727.52c40.42,14.58 331.96,316.28 350.24,344.12l-1674.8 1672.77c-37.26,-24.18 -997.86,-984.65 -1023.17,-1023.17l339.01 -341.11c51.89,25.78 623.89,635.54 685.22,672.99l1323.51 -1325.6zm-2888.11 -175.99c-14.92,42.77 -44.93,83.51 -66.53,126.66 -273.22,545.84 -304.62,1225.77 -70.23,1791.33 393.43,949.32 1359.76,1506.93 2385.13,1337.96 53.82,-8.87 121.4,-31.35 172.12,-29.47 15.18,-13.29 199.3,-65.5 256.22,-87.32 183.15,-70.2 400.06,-191.15 551.17,-312.18 97.39,-78.01 193.46,-159.08 271.02,-250.42l80.09 -90.79c122.07,-142.27 249.36,-355.04 326.87,-544.83 314.94,-771.17 150.27,-1613.31 -280.11,-2164.65 -446.22,-571.63 -1139.81,-916.92 -1920.95,-850.81 -639.35,54.11 -1192.32,376.99 -1562.52,864.61l-142.29 209.93z"/>
   <path fill="#FCC066" d="M5826.42 5318.6l-8.15 -8.15 8.15 8.15zm-8.15 -8.15l-17.51 -4.48 17.51 4.48zm-24.43 -3314.95l2.43 2.43c-0.16,-0.16 -3.24,-1.62 -2.43,-2.43zm24.43 -8.15l0 0zm-1425.35 -1009.96l2.43 2.43c-0.16,-0.16 -3.24,-1.62 -2.43,-2.43zm-1734.85 0l2.43 2.43c-0.16,-0.16 -3.24,-1.62 -2.43,-2.43zm-762.02 -480.54c-122.37,392.74 -184.02,479.84 -247.44,937.28 -37.62,271.4 -49.19,563.05 -32.13,838.47 5.46,88.08 23.85,194.57 23.74,278.93l142.29 -209.93c370.2,-487.62 923.16,-810.5 1562.52,-864.61 781.14,-66.11 1474.73,279.18 1920.95,850.81 430.38,551.34 595.05,1393.47 280.11,2164.65 -77.51,189.79 -204.8,402.57 -326.87,544.83l-80.09 90.79c-77.56,91.34 -173.63,172.41 -271.02,250.42 -151.11,121.03 -368.02,241.98 -551.17,312.18 -56.92,21.82 -241.04,74.03 -256.22,87.32 37.93,-3 356.01,123.06 428.31,144.91 527.57,159.46 1000.02,207.72 1565.44,167.53 1.11,-1.48 2.35,-5.97 2.68,-4.87 0.34,1.12 2.12,-3.95 2.57,-5.04 0.67,-1.65 80.74,-205.4 -10.94,-438.58 -77.87,-198.08 -178.54,-257.88 -222.37,-323.34 75.03,17.48 80.87,70.08 361.71,110.7 129.66,18.76 307.66,-43.19 384.31,-89.58 321.14,-194.32 482.53,-556.96 484.05,-941.68 1.03,-263 -125.32,-486.85 -329.19,-623.76 -75.08,-50.42 -242.56,-117.23 -363.31,-117.23 22.83,-31.16 -6.06,-5.34 89.09,-24.94 349.89,-72.05 602.98,-347.16 603.5,-724.11 0.54,-392.84 -160.25,-749.62 -490.41,-951.79 -214.71,-131.47 -447.08,-97.25 -665.32,-8.47 -26.1,10.62 -60.08,33.6 -82.57,39.6 33.41,-49.89 132.71,-114.3 209.11,-279.58 304.07,-657.79 -533.4,-1338.83 -1097.15,-1203.03 -153.77,37.04 -283.48,108.28 -381.42,229.45 -22.2,27.47 -31.53,36.05 -53.3,68.87l-94.45 158.04c14.69,-176.55 51.93,-179.52 -6.35,-409.04 -15.89,-62.57 -41.44,-114.8 -71.48,-164.72 -17.17,-28.54 -26.59,-42.32 -46.87,-67.16 -69.55,-85.18 -42.6,-52.09 -117.76,-118.44 -147.66,-130.34 -420.11,-201.75 -629.04,-201.75 -257.82,0 -464.61,70.86 -650.45,221.07 -15.7,12.69 -19.52,13.57 -35.96,29.2 -35.05,33.35 -79.25,90.47 -104.21,131.99 -64.45,107.17 -102.1,234 -105.86,367.1 -1.98,70.07 19.92,150.93 24.98,211.75 -62.51,-71.92 -133.5,-344.93 -483.89,-444.62 -69.66,-19.82 -197.04,-43.59 -278.13,-19.63z"/>
   <path fill="#FAB040" d="M1240.87 5310.46l-8.15 8.15 8.15 -8.15zm0 0l15.88 -9.37 -15.88 9.37zm16.29 -3314.95l2.43 2.43c-0.16,-0.16 -3.24,-1.62 -2.43,-2.43zm-16.29 -8.15l0 0zm0 0l-163.83 -72.37c-266.97,-88.61 -524.49,-43.54 -722.03,139.46 -325.91,301.95 -468.36,873.74 -251.11,1232.77 96.94,160.2 215.44,256.75 398.65,318.1l145.53 33.65c42.82,5.66 27.58,-8.55 47.08,18.08 -117.72,0 -287.7,66.61 -358.47,113.93 -565.47,378.09 -349.15,1266.7 150.02,1568.75 196.06,118.64 449.04,116.6 661.95,16.98 30.76,-14.39 50.51,-30.29 84.06,-38.11l-91.71 103.77c-31.22,34.76 -59.13,77.32 -84.08,119.54 -55.24,93.45 -77.36,186.66 -92,315.62 -5.28,46.47 13.48,144.77 21.73,179.53 15.82,66.65 28.95,95.92 51.71,151.91 48.55,119.47 142.03,212.68 161.78,247.92l162.94 152.29c58.67,25.03 140.76,108.28 333.93,171.08 136.02,44.21 290.67,61.72 437.84,30.18 149.62,-32.07 298.94,-124.15 386.35,-240.44 102.37,-136.19 92.13,-160.56 144.47,-239.72 -19.24,155.33 -46.18,251.95 -4.42,414.25 24.15,103.66 79.9,208.27 143.1,280.59l111.46 100.85c13.22,11.04 14.23,8.03 19.22,20.47 70.55,27.07 126.41,78.31 219.87,105.22 41.01,22.55 240.68,72.18 301.36,62.38 159.02,1.77 288.97,-6.92 429.96,-54.88 143.89,-48.94 294.04,-140.48 375.82,-243.11 188.67,-236.79 164.6,-417.86 131.42,-685.76 27.5,41.59 51.68,105.57 79.76,149.9 32.58,51.43 66.29,92.01 98.61,134.21l114.34 99.88c139.55,56.72 202.31,121.97 423.86,112.12 232.28,-10.32 286.26,-74.39 415.02,-111.92 152.47,-94.71 271.03,-169.88 381.74,-318.11 21.52,-28.82 40.07,-55.64 59.68,-86.92 25.93,-41.34 83.79,-143.44 88,-199 -565.43,40.19 -1037.87,-8.07 -1565.44,-167.53 -72.3,-21.85 -390.38,-147.91 -428.31,-144.91 -50.72,-1.87 -118.3,20.61 -172.12,29.47 -1025.36,168.97 -1991.7,-388.63 -2385.13,-1337.96 -234.39,-565.56 -202.99,-1245.49 70.23,-1791.33 21.6,-43.15 51.61,-83.89 66.53,-126.66 0.1,-84.36 -18.29,-190.85 -23.74,-278.93 -17.07,-275.42 -5.5,-567.07 32.13,-838.47 63.42,-457.44 125.06,-544.54 247.44,-937.28 -164.94,0 -385.23,113.02 -487.47,184 -132.86,92.23 -244.25,207.24 -328.07,347.96 -182.55,306.46 -141.76,597.63 77.68,870.19 26.39,32.78 59.75,54.12 82.68,88.36z"/>
   <path fill="#4069FB" d="M3118.26 7297.8l-28.41 -24.64c-10.32,-7.54 -12.56,-8.49 -23.72,-16.84 -44.55,-33.33 -102.19,-83.86 -131.1,-129.89 -4.99,-12.45 -6.01,-9.44 -19.22,-20.47l-111.46 -100.85c-63.2,-72.32 -118.95,-176.93 -143.1,-280.59 -51.98,29.76 -105.92,130.29 -285.99,192.67 -258.31,89.48 -532.19,23.89 -755.76,-111.9 -73.87,-44.87 -226.54,-153.7 -256.43,-216.11l-162.94 -152.29c-7.21,23 -43.62,79.97 -57.48,102.96 -20.08,33.3 -39.04,66.3 -59.34,103.56l-182.03 314.81c-20.51,36.7 -40.56,68.31 -59.52,103.37l-122.64 211.3c-82.7,137.15 -157.24,278.51 -241.31,418.42l-178.96 309.73c-17.55,32.15 -52.69,80.69 -59.81,111.23l677.64 389.34c76.2,45.69 152.76,86.76 226.9,131.47l563.15 324.64c38.59,23.14 75.58,44.91 112.83,66.36l227.64 130.74c88.34,-131.92 303.25,-528.16 400.72,-690.69l97.6 -171.18c13.31,-21.98 23.73,-37.94 36.45,-61.29 135.36,-248.47 320.75,-556.41 467.47,-811.27 22.81,-39.62 47.1,-76.66 68.82,-122.59z"/>
   <path fill="#4069FB" d="M3545.86 7440.33c6.34,33.77 40.59,82.58 56.59,110.38 132.38,229.95 311.74,526.65 432.1,748.9 51.47,95.04 479.52,815.84 488.69,855.21l792.56 -453.6c183.76,-102.69 388.06,-231.2 567.63,-328.31 153.69,-83.11 300.73,-178.42 456.11,-260.64l-222.43 -388.43c-102.16,-183.6 -404.04,-713.84 -494.32,-853.45 -168.78,68.51 -337.66,114.37 -541.74,73.45 -83.37,-16.72 -164.1,-51.85 -225.81,-92.12 -53.22,-34.74 -137,-104.2 -169.07,-157.47l-114.34 -99.88c-19.72,34.2 30.21,187.68 -60.56,398.54 -153.02,355.43 -578.84,478.48 -965.41,447.4z"/>
   <path fill="#4069FB" d="M3204.84 4053.12c-61.33,-37.44 -633.34,-647.21 -685.22,-672.99l-339.01 341.11c25.32,38.52 985.91,998.99 1023.17,1023.17l1674.8 -1672.77c-18.28,-27.85 -309.82,-329.55 -350.24,-344.12l-1323.51 1325.6z"/>
   <path fill="#3A5ACF" d="M3456.27 7294.03c10.82,26.07 26.84,51.69 41.13,76.67 7.03,12.29 12.12,20.47 21.3,35.95l27.17 33.68c386.57,31.08 812.39,-91.97 965.41,-447.4 90.78,-210.86 40.84,-364.34 60.56,-398.54 -32.32,-42.2 -66.03,-82.78 -98.61,-134.21 -28.09,-44.34 -52.27,-108.32 -79.76,-149.9 33.18,267.9 57.26,448.98 -131.42,685.76 -81.78,102.63 -231.93,194.17 -375.82,243.11 -140.99,47.96 -270.94,56.65 -429.96,54.88z"/>
   <path fill="#3A5ACF" d="M1363.08 6589.18c29.9,62.4 182.57,171.24 256.43,216.11 223.57,135.79 497.44,201.39 755.76,111.9 180.07,-62.38 234.01,-162.91 285.99,-192.67 -41.77,-162.3 -14.82,-258.92 4.42,-414.25 -52.34,79.16 -42.1,103.53 -144.47,239.72 -87.41,116.29 -236.73,208.37 -386.35,240.44 -147.18,31.54 -301.83,14.04 -437.84,-30.18 -193.18,-62.79 -275.27,-146.05 -333.93,-171.08z"/>
   <path fill="#3A5ACF" d="M5622.8 6870.4c-7.89,-26.19 -35.03,-62.66 -48.46,-86.14 -17.67,-30.87 -33.23,-58.13 -49.28,-89.8 -128.75,37.53 -182.74,101.59 -415.02,111.92 -221.55,9.85 -284.31,-55.4 -423.86,-112.12 32.07,53.27 115.85,122.73 169.07,157.47 61.71,40.28 142.43,75.41 225.81,92.12 204.08,40.92 372.96,-4.95 541.74,-73.45z"/>
   <path fill="#3A5ACF" d="M3118.26 7297.8c12.54,-13.86 31.36,-45.16 36.64,-66.15 -93.45,-26.9 -149.32,-78.15 -219.87,-105.22 28.91,46.03 86.55,96.56 131.1,129.89 11.16,8.35 13.4,9.29 23.72,16.84l28.41 24.64z"/>
  </g>
</svg>
