<svg xmlns="http://www.w3.org/2000/svg" viewBox="0 0 595.28 545.32"><path d="M111.61,317.43c0,52.31,26.27,74.53,52.61,100.85l26.16,26.17,90.11,90.1c19.84,19.86,24.33,10,45.34-11l77.9-77.9c38.63-38.63,79.93-67,79.93-127,0-62.75-52.07-116.26-111.61-116.26-26.06,0-38.63,2.58-60.48,13.94-2.53,1.31-3.95,2.22-6.6,3.85-14.11,8.75-1.66,3.12-35.56-10.5-27.55-11.08-65-9.53-91.15,3.54C140.44,232,111.62,270,111.62,317.42ZM143,89.56c0,28.51,6.36,48.07,20.41,66.78C183.14,182.61,215.76,193.85,248,176c9.48-5.25,15.36-11.85,22-19.87,27-32.75,27.17-88.12,1.84-125.64C251.42.22,215.12-8.62,183.72,9.36,159.16,23.42,143,58.74,143,89.56Zm161.61,2.33c0,33.75,15.46,67.76,41.15,83.24,50,30.15,106.5-13.3,106.5-85.57,0-16-4.85-34.84-11.61-47.7-40.22-76.52-136-41.21-136,50ZM0,154.67c0,25.12,3,42.08,18.09,62.14,25.43,33.87,72.19,31.74,96.8-6.55C141.44,169,128.08,100.65,82.41,83.88,38,67.56,0,113.36,0,154.67Zm530.16,86c20.85,0,37.64-11.4,47-23.9a91.93,91.93,0,0,0,18.09-47.69V153c-3.83-45.89-39.8-84.8-82.42-69.15-45.62,16.75-66.77,93.91-20.21,140.86,7.91,8,22,16,37.51,16Z" transform="translate(0 0)" fill-rule="evenodd"/></svg>