<svg xmlns="http://www.w3.org/2000/svg" id="cart_add">
<path fill-rule="evenodd" clip-rule="evenodd" d="M1 3.75H3.44198L5.85404 11.7902C6.203 12.9534 7.27364 13.75 8.48806 13.75H14.4914C15.7192 13.75 16.7983 12.9361 17.1356 11.7555L18.7211 6.20604C18.8349 5.80776 18.6043 5.39265 18.206 5.27886C17.8078 5.16506 17.3927 5.39568 17.2789 5.79396L15.6933 11.3434C15.54 11.88 15.0495 12.25 14.4914 12.25H8.48806C7.93605 12.25 7.4494 11.8879 7.29078 11.3592L4.71837 2.78449C4.6232 2.46725 4.33121 2.25 4 2.25H1V3.75ZM12.25 4C12.25 3.58579 11.9142 3.25 11.5 3.25C11.0858 3.25 10.75 3.58579 10.75 4V5.75H9H8.25V7.25H9H10.75V9V9.75H12.25V9V7.25H14C14.4142 7.25 14.75 6.91421 14.75 6.5C14.75 6.08579 14.4142 5.75 14 5.75H12.25V4ZM9.00391 17.4971C9.00391 18.3255 8.33233 18.9971 7.50391 18.9971C6.67548 18.9971 6.00391 18.3255 6.00391 17.4971C6.00391 16.6686 6.67548 15.9971 7.50391 15.9971C8.33233 15.9971 9.00391 16.6686 9.00391 17.4971ZM14.5 18.9971C15.3284 18.9971 16 18.3255 16 17.4971C16 16.6686 15.3284 15.9971 14.5 15.9971C13.6716 15.9971 13 16.6686 13 17.4971C13 18.3255 13.6716 18.9971 14.5 18.9971Z" />
</svg>