<svg xmlns="http://www.w3.org/2000/svg" viewBox="0 0 20 18"><path d="M12,21a1.94,1.94,0,0,0,.74-.26C18.4,17.21,22,13.1,22,8.92A5.63,5.63,0,0,0,16.29,3,5.09,5.09,0,0,0,12,5.19,5.09,5.09,0,0,0,7.71,3,5.63,5.63,0,0,0,2,8.92c0,4.18,3.6,8.29,9.27,11.82A1.84,1.84,0,0,0,12,21Zm0-1.66a.58.58,0,0,1-.2-.11C7.58,16.5,3.62,12.57,3.62,8.92A4,4,0,0,1,7.69,4.58a4.25,4.25,0,0,1,3.63,2.13c.27.39.44.5.68.5s.39-.12.68-.5a4.38,4.38,0,0,1,3.63-2.13,4,4,0,0,1,4.07,4.34c0,3.65-4,7.58-8.17,10.31A.7.7,0,0,1,12,19.34Z" transform="translate(-2 -3)" fill-rule="evenodd"/></svg>